<?xml version="1.0" encoding="UTF-8" standalone="no"?>
<!-- Created with Inkscape (http://www.inkscape.org/) -->

<svg
   version="1.1"
   id="svg1"
   width="123.39332"
   height="52.635727"
   viewBox="0 0 123.39331 52.635727"
   sodipodi:docname="carteira.svg"
   inkscape:version="1.3 (0e150ed, 2023-07-21)"
   inkscape:export-filename="carteira.png"
   inkscape:export-xdpi="96"
   inkscape:export-ydpi="96"
   xmlns:inkscape="http://www.inkscape.org/namespaces/inkscape"
   xmlns:sodipodi="http://sodipodi.sourceforge.net/DTD/sodipodi-0.dtd"
   xmlns="http://www.w3.org/2000/svg"
   xmlns:svg="http://www.w3.org/2000/svg">
  <defs
     id="defs1">
    <clipPath
       clipPathUnits="userSpaceOnUse"
       id="clipPath35">
      <path
         d="M 0,595 H 842 V 0 H 0 Z"
         transform="translate(-278.70691,-508.24881)"
         id="path35" />
    </clipPath>
    <clipPath
       clipPathUnits="userSpaceOnUse"
       id="clipPath37">
      <path
         d="M 0,595 H 842 V 0 H 0 Z"
         transform="translate(-265.2037,-497.92931)"
         id="path37" />
    </clipPath>
    <clipPath
       clipPathUnits="userSpaceOnUse"
       id="clipPath39">
      <path
         d="M 0,595 H 842 V 0 H 0 Z"
         transform="translate(-295.8871,-477.83501)"
         id="path39" />
    </clipPath>
  </defs>
  <sodipodi:namedview
     id="namedview1"
     pagecolor="#ffffff"
     bordercolor="#000000"
     borderopacity="0.25"
     inkscape:showpageshadow="2"
     inkscape:pageopacity="0.0"
     inkscape:pagecheckerboard="0"
     inkscape:deskcolor="#d1d1d1"
     inkscape:zoom="0.92013054"
     inkscape:cx="561.3334"
     inkscape:cy="396.68285"
     inkscape:window-width="1632"
     inkscape:window-height="957"
     inkscape:window-x="0"
     inkscape:window-y="25"
     inkscape:window-maximized="0"
     inkscape:current-layer="layer-MC0"
     inkscape:export-bgcolor="#ffffff00">
    <inkscape:page
       x="-2.0355581e-05"
       y="-5.6234887e-07"
       width="123.39331"
       height="52.635727"
       id="page2"
       margin="0"
       bleed="0" />
  </sodipodi:namedview>
  <g
     id="layer-MC0"
     inkscape:groupmode="layer"
     inkscape:label="Camada 1"
     transform="translate(-275.17079,-109.8096)">
    <g
       id="g1"
       inkscape:export-filename="../../../../../Downloads/g1.svg"
       inkscape:export-xdpi="96"
       inkscape:export-ydpi="96">
      <path
         id="path34"
         d="m 0,0 c -0.362,0 -0.671,-0.12 -0.927,-0.359 -0.255,-0.24 -0.383,-0.531 -0.383,-0.874 0,-0.339 0.128,-0.629 0.383,-0.868 C -0.671,-2.34 -0.362,-2.46 0,-2.46 c 0.366,0 0.677,0.12 0.933,0.359 0.256,0.239 0.384,0.529 0.384,0.868 0,0.343 -0.128,0.634 -0.384,0.874 C 0.677,-0.12 0.366,0 0,0 M -1.719,1.544 C -1.191,1.832 -0.618,1.975 0,1.975 0.618,1.975 1.189,1.832 1.713,1.544 2.241,1.257 2.659,0.866 2.966,0.371 c 0.306,-0.491 0.46,-1.025 0.46,-1.604 0,-0.579 -0.154,-1.115 -0.46,-1.61 C 2.659,-3.334 2.241,-3.723 1.713,-4.01 1.189,-4.294 0.618,-4.435 0,-4.435 c -0.464,0 -0.908,0.083 -1.329,0.251 -0.422,0.172 -0.787,0.399 -1.093,0.682 -0.303,0.288 -0.546,0.629 -0.729,1.024 -0.179,0.395 -0.269,0.81 -0.269,1.245 0,0.579 0.152,1.113 0.454,1.604 0.307,0.495 0.723,0.886 1.247,1.173 z m -5.731,2.85 c 0.281,0 0.526,-0.098 0.735,-0.294 0.213,-0.195 0.319,-0.425 0.319,-0.688 V 1.975 h 0.799 c 0.294,0 0.541,-0.097 0.742,-0.293 0.204,-0.192 0.306,-0.425 0.306,-0.7 0,-0.268 -0.102,-0.499 -0.306,-0.695 C -5.06,0.096 -5.307,0 -5.597,0 h -0.799 v -3.454 c 0,-0.263 -0.106,-0.493 -0.319,-0.688 -0.209,-0.196 -0.454,-0.293 -0.735,-0.293 -0.29,0 -0.537,0.095 -0.742,0.287 -0.204,0.195 -0.307,0.427 -0.307,0.694 V 0 h -0.249 c -0.281,0 -0.526,0.098 -0.735,0.293 -0.209,0.196 -0.313,0.425 -0.313,0.689 0,0.275 0.104,0.508 0.313,0.7 0.209,0.196 0.454,0.293 0.735,0.293 h 0.249 v 1.437 c 0,0.267 0.103,0.497 0.307,0.688 0.205,0.196 0.452,0.294 0.742,0.294 m -6.556,-2.419 c 0.554,0 1.042,-0.137 1.464,-0.413 0.426,-0.271 0.75,-0.638 0.971,-1.101 0.226,-0.459 0.339,-0.976 0.339,-1.55 v -2.365 c 0,-0.263 -0.104,-0.493 -0.313,-0.688 -0.205,-0.196 -0.45,-0.293 -0.735,-0.293 -0.281,0 -0.529,0.097 -0.742,0.293 -0.213,0.195 -0.319,0.425 -0.319,0.688 v 2.389 c 0,0.299 -0.102,0.554 -0.307,0.766 -0.205,0.215 -0.447,0.323 -0.729,0.323 -0.281,0 -0.524,-0.108 -0.728,-0.323 -0.201,-0.212 -0.301,-0.467 -0.301,-0.766 v -2.389 c 0,-0.263 -0.104,-0.493 -0.313,-0.688 -0.209,-0.196 -0.458,-0.293 -0.748,-0.293 -0.281,0 -0.526,0.097 -0.735,0.293 -0.209,0.195 -0.313,0.425 -0.313,0.688 v 4.436 c 0,0.275 0.104,0.508 0.313,0.7 0.209,0.196 0.454,0.293 0.735,0.293 0.192,0 0.369,-0.046 0.531,-0.137 0.162,-0.092 0.29,-0.214 0.383,-0.365 0.469,0.335 0.985,0.502 1.547,0.502 z m -8.626,-1.742 c -0.158,0 -0.324,-0.031 -0.499,-0.095 -0.175,-0.06 -0.341,-0.148 -0.498,-0.264 -0.158,-0.115 -0.288,-0.269 -0.39,-0.461 -0.103,-0.191 -0.156,-0.403 -0.16,-0.634 l 2.435,1.185 c -0.192,0.18 -0.488,0.269 -0.888,0.269 z m -0.039,1.742 c 0.55,0 1.061,-0.101 1.534,-0.305 0.477,-0.204 0.852,-0.475 1.125,-0.814 0.277,-0.335 0.416,-0.692 0.416,-1.071 0,-0.152 -0.045,-0.274 -0.135,-0.366 -0.085,-0.087 -0.232,-0.183 -0.441,-0.287 l -3.349,-1.64 c 0.145,-0.108 0.407,-0.162 0.786,-0.162 0.461,0 0.887,0.184 1.279,0.551 0.153,0.144 0.298,0.251 0.434,0.323 0.141,0.072 0.299,0.108 0.473,0.108 0.282,0 0.503,-0.08 0.665,-0.239 0.166,-0.16 0.249,-0.376 0.249,-0.647 0,-0.195 -0.049,-0.363 -0.147,-0.503 -0.315,-0.431 -0.735,-0.766 -1.259,-1.005 -0.52,-0.236 -1.08,-0.353 -1.681,-0.353 -0.639,0 -1.223,0.143 -1.751,0.431 -0.524,0.287 -0.933,0.674 -1.227,1.161 -0.294,0.491 -0.441,1.027 -0.441,1.61 0,0.579 0.155,1.113 0.466,1.604 0.311,0.495 0.733,0.886 1.266,1.173 0.532,0.288 1.112,0.431 1.738,0.431 m -8.128,0 c 0.503,0 0.959,-0.113 1.368,-0.341 0.409,-0.227 0.729,-0.537 0.959,-0.928 0.23,-0.387 0.345,-0.814 0.345,-1.281 v -2.879 c 0,-0.263 -0.104,-0.493 -0.313,-0.688 -0.209,-0.196 -0.458,-0.293 -0.748,-0.293 -0.281,0 -0.526,0.097 -0.735,0.293 -0.209,0.195 -0.313,0.425 -0.313,0.688 v 2.903 c 0,0.16 -0.062,0.296 -0.186,0.407 -0.119,0.112 -0.266,0.168 -0.441,0.168 -0.17,0 -0.315,-0.056 -0.434,-0.168 -0.119,-0.111 -0.179,-0.247 -0.179,-0.407 v -2.903 c 0,-0.263 -0.107,-0.493 -0.32,-0.688 -0.209,-0.196 -0.456,-0.293 -0.741,-0.293 -0.29,0 -0.537,0.095 -0.742,0.287 -0.204,0.195 -0.306,0.427 -0.306,0.694 v 2.903 c 0,0.156 -0.062,0.29 -0.186,0.401 -0.119,0.116 -0.262,0.174 -0.428,0.174 -0.175,0 -0.324,-0.056 -0.447,-0.168 -0.124,-0.111 -0.186,-0.247 -0.186,-0.407 v -2.903 c 0,-0.267 -0.104,-0.499 -0.313,-0.694 -0.204,-0.192 -0.452,-0.287 -0.741,-0.287 -0.286,0 -0.533,0.097 -0.742,0.293 -0.204,0.195 -0.307,0.425 -0.307,0.688 v 2.879 c 0,0.711 0.254,1.313 0.761,1.808 0.507,0.495 1.138,0.742 1.892,0.742 0.328,0 0.648,-0.064 0.959,-0.191 0.315,-0.128 0.577,-0.29 0.786,-0.485 0.213,0.199 0.475,0.361 0.786,0.485 0.311,0.127 0.629,0.191 0.952,0.191 z m -9.367,0 c 0.298,0 0.549,-0.097 0.754,-0.293 0.204,-0.192 0.307,-0.425 0.307,-0.7 v -2.341 c 0,-0.562 -0.13,-1.077 -0.39,-1.544 -0.26,-0.467 -0.631,-0.84 -1.112,-1.119 -0.482,-0.276 -1.025,-0.413 -1.63,-0.413 -0.605,0 -1.149,0.137 -1.63,0.413 -0.482,0.279 -0.855,0.652 -1.119,1.119 -0.26,0.467 -0.39,0.982 -0.39,1.544 v 2.341 c 0,0.275 0.103,0.508 0.307,0.7 0.205,0.196 0.452,0.293 0.742,0.293 0.294,0 0.543,-0.097 0.747,-0.293 0.205,-0.192 0.307,-0.425 0.307,-0.7 v -2.377 c 0,-0.299 0.103,-0.558 0.307,-0.778 0.205,-0.215 0.447,-0.323 0.729,-0.323 0.281,0 0.522,0.108 0.722,0.323 0.2,0.22 0.3,0.479 0.3,0.778 v 2.377 c 0,0.275 0.103,0.508 0.307,0.7 0.209,0.196 0.456,0.293 0.742,0.293 m -10.301,0 c 0.626,0 1.195,-0.129 1.706,-0.389 0.511,-0.255 0.927,-0.624 1.246,-1.107 0.09,-0.148 0.135,-0.315 0.135,-0.503 0,-0.243 -0.103,-0.457 -0.307,-0.64 -0.2,-0.184 -0.443,-0.276 -0.729,-0.276 -0.396,0 -0.696,0.146 -0.901,0.437 -0.115,0.16 -0.273,0.289 -0.473,0.389 -0.196,0.104 -0.422,0.156 -0.677,0.156 -0.367,0 -0.678,-0.12 -0.934,-0.359 -0.251,-0.236 -0.377,-0.541 -0.377,-0.916 0,-0.367 0.126,-0.67 0.377,-0.91 0.256,-0.235 0.567,-0.353 0.934,-0.353 0.251,0 0.462,0.04 0.632,0.12 0.175,0.083 0.348,0.215 0.518,0.395 0.286,0.307 0.59,0.461 0.914,0.461 0.281,0 0.522,-0.09 0.722,-0.27 0.201,-0.175 0.301,-0.395 0.301,-0.658 0,-0.156 -0.049,-0.311 -0.147,-0.467 -0.303,-0.483 -0.716,-0.858 -1.24,-1.125 -0.524,-0.264 -1.091,-0.395 -1.7,-0.395 -0.469,0 -0.912,0.079 -1.33,0.239 -0.417,0.16 -0.78,0.377 -1.086,0.652 -0.307,0.28 -0.552,0.619 -0.736,1.018 -0.178,0.403 -0.268,0.834 -0.268,1.293 0,0.579 0.151,1.113 0.454,1.604 0.307,0.495 0.722,0.886 1.246,1.173 0.529,0.288 1.102,0.431 1.72,0.431 M -59.119,0 c -0.363,0 -0.672,-0.12 -0.927,-0.359 -0.256,-0.24 -0.384,-0.531 -0.384,-0.874 0,-0.339 0.128,-0.629 0.384,-0.868 0.255,-0.239 0.564,-0.359 0.927,-0.359 0.366,0 0.677,0.12 0.933,0.359 0.255,0.239 0.383,0.529 0.383,0.868 0,0.343 -0.128,0.634 -0.383,0.874 C -58.442,-0.12 -58.753,0 -59.119,0 m -1.72,1.544 c 0.529,0.288 1.102,0.431 1.72,0.431 0.617,0 1.188,-0.143 1.713,-0.431 0.528,-0.287 0.945,-0.678 1.252,-1.173 0.307,-0.491 0.46,-1.025 0.46,-1.604 0,-0.579 -0.153,-1.115 -0.46,-1.61 -0.307,-0.491 -0.724,-0.88 -1.252,-1.167 -0.525,-0.284 -1.096,-0.425 -1.713,-0.425 -0.465,0 -0.908,0.083 -1.33,0.251 -0.422,0.172 -0.786,0.399 -1.093,0.682 -0.302,0.288 -0.545,0.629 -0.728,1.024 -0.179,0.395 -0.269,0.81 -0.269,1.245 0,0.579 0.151,1.113 0.454,1.604 0.307,0.495 0.722,0.886 1.246,1.173 m -8.243,0.772 h -0.799 v -4.68 h 0.799 c 0.682,0 1.266,0.229 1.752,0.688 0.49,0.459 0.735,1.01 0.735,1.652 0,0.643 -0.245,1.193 -0.735,1.652 -0.486,0.459 -1.07,0.688 -1.752,0.688 m -1.911,2.078 h 1.899 c 0.639,0 1.248,-0.118 1.828,-0.354 0.579,-0.231 1.08,-0.544 1.502,-0.939 0.421,-0.391 0.756,-0.86 1.003,-1.407 0.251,-0.547 0.377,-1.119 0.377,-1.718 0,-0.802 -0.211,-1.542 -0.633,-2.221 -0.421,-0.674 -0.995,-1.209 -1.719,-1.604 -0.72,-0.391 -1.506,-0.586 -2.358,-0.586 h -1.899 c -0.298,0 -0.556,0.101 -0.773,0.305 -0.217,0.207 -0.326,0.449 -0.326,0.724 v 6.77 c 0,0.275 0.109,0.515 0.326,0.718 0.217,0.208 0.475,0.312 0.773,0.312"
         style="fill:#ffffff;fill-opacity:1;fill-rule:nonzero;stroke:none"
         transform="matrix(1.3333333,0,0,-1.3333333,371.6092,115.66827)"
         clip-path="url(#clipPath35)" />
      <path
         id="path36"
         d="m 0,0 c 0.294,0 0.545,-0.098 0.754,-0.293 0.213,-0.192 0.32,-0.421 0.32,-0.689 v -7.476 c 0,-0.263 -0.107,-0.493 -0.32,-0.688 C 0.545,-9.342 0.294,-9.44 0,-9.44 c -0.281,0 -0.528,0.098 -0.741,0.294 -0.213,0.195 -0.32,0.425 -0.32,0.688 v 7.476 c 0,0.268 0.104,0.497 0.313,0.689 C -0.535,-0.098 -0.285,0 0,0 m -3.283,-6.237 v -2.209 c 0,-0.279 -0.104,-0.515 -0.313,-0.706 -0.209,-0.192 -0.48,-0.288 -0.812,-0.288 -0.4,0 -0.729,0.14 -0.984,0.419 C -5.81,-9.3 -6.315,-9.44 -6.907,-9.44 c -0.592,0 -1.138,0.146 -1.636,0.437 -0.495,0.292 -0.882,0.683 -1.164,1.174 -0.281,0.49 -0.421,1.021 -0.421,1.592 0,0.578 0.151,1.113 0.453,1.604 0.307,0.495 0.723,0.886 1.247,1.173 0.528,0.288 1.101,0.431 1.719,0.431 0.618,0 1.189,-0.141 1.713,-0.425 0.524,-0.283 0.94,-0.672 1.246,-1.167 0.311,-0.491 0.467,-1.03 0.467,-1.616 z m -3.426,1.233 c -0.362,0 -0.671,-0.12 -0.927,-0.359 -0.255,-0.24 -0.383,-0.531 -0.383,-0.874 0,-0.339 0.128,-0.629 0.383,-0.868 0.256,-0.24 0.565,-0.359 0.927,-0.359 0.367,0 0.678,0.119 0.933,0.359 0.256,0.239 0.384,0.529 0.384,0.868 0,0.343 -0.128,0.634 -0.384,0.874 -0.255,0.239 -0.566,0.359 -0.933,0.359 m -8.179,1.975 c 0.554,0 1.042,-0.137 1.464,-0.413 0.426,-0.271 0.75,-0.638 0.971,-1.101 0.226,-0.459 0.339,-0.976 0.339,-1.551 v -2.364 c 0,-0.263 -0.104,-0.493 -0.313,-0.688 -0.205,-0.196 -0.45,-0.294 -0.735,-0.294 -0.281,0 -0.529,0.098 -0.742,0.294 -0.213,0.195 -0.319,0.425 -0.319,0.688 v 2.388 c 0,0.3 -0.103,0.555 -0.307,0.767 -0.205,0.215 -0.447,0.323 -0.729,0.323 -0.281,0 -0.524,-0.108 -0.728,-0.323 -0.201,-0.212 -0.301,-0.467 -0.301,-0.767 v -2.388 c 0,-0.263 -0.104,-0.493 -0.313,-0.688 -0.209,-0.196 -0.458,-0.294 -0.748,-0.294 -0.281,0 -0.526,0.098 -0.735,0.294 -0.209,0.195 -0.313,0.425 -0.313,0.688 v 4.436 c 0,0.275 0.104,0.508 0.313,0.7 0.209,0.195 0.454,0.293 0.735,0.293 0.192,0 0.369,-0.046 0.531,-0.137 0.162,-0.092 0.289,-0.214 0.383,-0.366 0.469,0.336 0.985,0.503 1.547,0.503 z m -8.978,-1.975 c -0.362,0 -0.671,-0.12 -0.927,-0.359 -0.255,-0.24 -0.383,-0.531 -0.383,-0.874 0,-0.339 0.128,-0.629 0.383,-0.868 0.256,-0.24 0.565,-0.359 0.927,-0.359 0.367,0 0.678,0.119 0.933,0.359 0.256,0.239 0.384,0.529 0.384,0.868 0,0.343 -0.128,0.634 -0.384,0.874 -0.255,0.239 -0.566,0.359 -0.933,0.359 m -1.719,1.544 c 0.528,0.288 1.101,0.431 1.719,0.431 0.618,0 1.189,-0.143 1.713,-0.431 0.528,-0.287 0.946,-0.678 1.253,-1.173 0.307,-0.491 0.46,-1.026 0.46,-1.604 0,-0.579 -0.153,-1.116 -0.46,-1.61 -0.307,-0.491 -0.725,-0.88 -1.253,-1.168 -0.524,-0.283 -1.095,-0.425 -1.713,-0.425 -0.464,0 -0.908,0.084 -1.329,0.252 -0.422,0.171 -0.787,0.399 -1.093,0.682 -0.303,0.288 -0.546,0.629 -0.729,1.024 -0.179,0.395 -0.268,0.81 -0.268,1.245 0,0.578 0.151,1.113 0.453,1.604 0.307,0.495 0.723,0.886 1.247,1.173 z m -5.559,2.82 c 0.209,0.199 0.467,0.299 0.774,0.299 0.306,0 0.564,-0.1 0.773,-0.299 0.209,-0.2 0.313,-0.443 0.313,-0.731 0,-0.283 -0.104,-0.525 -0.313,-0.724 -0.209,-0.196 -0.467,-0.293 -0.773,-0.293 -0.307,0 -0.565,0.097 -0.774,0.293 -0.209,0.199 -0.313,0.441 -0.313,0.724 0,0.288 0.104,0.531 0.313,0.731 m 0.774,-2.389 c 0.294,0 0.541,-0.098 0.741,-0.293 0.205,-0.192 0.307,-0.425 0.307,-0.7 v -4.436 c 0,-0.267 -0.102,-0.499 -0.307,-0.694 -0.204,-0.192 -0.452,-0.288 -0.741,-0.288 -0.282,0 -0.529,0.098 -0.742,0.294 -0.213,0.195 -0.319,0.425 -0.319,0.688 v 4.436 c 0,0.271 0.104,0.504 0.313,0.7 0.213,0.195 0.462,0.293 0.748,0.293 z m -6.204,0 c 0.626,0 1.195,-0.129 1.706,-0.389 0.512,-0.255 0.927,-0.624 1.247,-1.107 0.089,-0.148 0.134,-0.315 0.134,-0.503 0,-0.243 -0.102,-0.457 -0.307,-0.641 -0.2,-0.183 -0.443,-0.275 -0.729,-0.275 -0.396,0 -0.696,0.146 -0.901,0.437 -0.115,0.16 -0.273,0.289 -0.473,0.389 -0.196,0.104 -0.422,0.156 -0.677,0.156 -0.367,0 -0.678,-0.12 -0.934,-0.359 -0.251,-0.236 -0.377,-0.541 -0.377,-0.916 0,-0.367 0.126,-0.671 0.377,-0.91 0.256,-0.235 0.567,-0.353 0.934,-0.353 0.251,0 0.462,0.04 0.632,0.12 0.175,0.083 0.348,0.215 0.518,0.395 0.286,0.307 0.59,0.46 0.914,0.46 0.281,0 0.522,-0.089 0.722,-0.269 0.201,-0.175 0.301,-0.395 0.301,-0.658 0,-0.156 -0.049,-0.312 -0.147,-0.467 -0.303,-0.483 -0.716,-0.858 -1.24,-1.126 -0.524,-0.263 -1.091,-0.395 -1.7,-0.395 -0.469,0 -0.912,0.08 -1.33,0.24 -0.417,0.159 -0.78,0.377 -1.086,0.652 -0.307,0.28 -0.552,0.619 -0.735,1.018 -0.179,0.403 -0.269,0.834 -0.269,1.293 0,0.578 0.151,1.113 0.454,1.604 0.307,0.495 0.722,0.886 1.246,1.173 0.529,0.288 1.102,0.431 1.72,0.431 m -5.405,-3.208 v -2.209 c 0,-0.279 -0.105,-0.515 -0.314,-0.706 -0.208,-0.192 -0.479,-0.288 -0.811,-0.288 -0.401,0 -0.729,0.14 -0.985,0.419 -0.417,-0.279 -0.922,-0.419 -1.514,-0.419 -0.593,0 -1.138,0.146 -1.637,0.437 -0.494,0.292 -0.882,0.683 -1.163,1.174 -0.281,0.49 -0.422,1.021 -0.422,1.592 0,0.578 0.151,1.113 0.454,1.604 0.307,0.495 0.722,0.886 1.246,1.173 0.529,0.288 1.102,0.431 1.72,0.431 0.618,0 1.189,-0.141 1.713,-0.425 0.524,-0.283 0.939,-0.672 1.246,-1.167 0.311,-0.491 0.467,-1.03 0.467,-1.616 z m -3.426,1.233 c -0.362,0 -0.671,-0.12 -0.927,-0.359 -0.256,-0.24 -0.384,-0.531 -0.384,-0.874 0,-0.339 0.128,-0.629 0.384,-0.868 0.256,-0.24 0.565,-0.359 0.927,-0.359 0.366,0 0.677,0.119 0.933,0.359 0.256,0.239 0.383,0.529 0.383,0.868 0,0.343 -0.127,0.634 -0.383,0.874 -0.256,0.239 -0.567,0.359 -0.933,0.359 m -6.575,4.393 c 0.294,0 0.552,-0.103 0.773,-0.311 0.226,-0.203 0.339,-0.443 0.339,-0.718 v -6.77 c 0,-0.299 -0.113,-0.547 -0.339,-0.742 -0.225,-0.192 -0.488,-0.288 -0.786,-0.288 -0.345,0 -0.633,0.136 -0.863,0.407 l -3.521,4.388 V -8.41 c 0,-0.279 -0.109,-0.521 -0.326,-0.724 -0.218,-0.204 -0.48,-0.306 -0.787,-0.306 -0.298,0 -0.556,0.102 -0.773,0.306 -0.217,0.207 -0.326,0.449 -0.326,0.724 v 6.77 c 0,0.291 0.111,0.535 0.332,0.73 0.226,0.2 0.486,0.299 0.78,0.299 0.367,0 0.659,-0.135 0.876,-0.407 l 3.522,-4.387 v 3.765 c 0,0.275 0.108,0.515 0.326,0.718 0.217,0.208 0.475,0.311 0.773,0.311 z"
         style="fill:#ffffff;fill-opacity:1;fill-rule:nonzero;stroke:none"
         transform="matrix(1.3333333,0,0,-1.3333333,353.60493,129.4276)"
         clip-path="url(#clipPath37)" />
      <path
         id="path38"
         d="m 0,0 c -0.158,0 -0.324,-0.032 -0.499,-0.096 -0.174,-0.06 -0.34,-0.147 -0.498,-0.263 -0.158,-0.116 -0.288,-0.269 -0.39,-0.461 -0.102,-0.192 -0.156,-0.403 -0.16,-0.635 l 2.435,1.186 C 0.697,-0.09 0.401,0 0,0 M -0.038,1.742 C 0.511,1.742 1.023,1.64 1.496,1.437 1.973,1.233 2.348,0.962 2.621,0.623 2.898,0.287 3.036,-0.07 3.036,-0.449 3.036,-0.601 2.991,-0.722 2.902,-0.814 2.817,-0.902 2.67,-0.998 2.461,-1.101 l -3.349,-1.64 c 0.145,-0.108 0.407,-0.162 0.786,-0.162 0.46,0 0.886,0.183 1.278,0.551 0.153,0.143 0.298,0.251 0.435,0.323 0.14,0.072 0.298,0.108 0.473,0.108 0.281,0 0.503,-0.08 0.664,-0.24 0.167,-0.159 0.25,-0.375 0.25,-0.646 0,-0.196 -0.049,-0.363 -0.147,-0.503 -0.316,-0.431 -0.735,-0.766 -1.259,-1.006 -0.52,-0.235 -1.081,-0.353 -1.681,-0.353 -0.64,0 -1.223,0.144 -1.752,0.431 -0.524,0.287 -0.933,0.674 -1.227,1.161 -0.294,0.491 -0.441,1.028 -0.441,1.61 0,0.579 0.156,1.114 0.467,1.605 0.311,0.495 0.733,0.886 1.265,1.173 0.533,0.287 1.112,0.431 1.739,0.431 z M -7.54,4.16 c 0.281,0 0.526,-0.098 0.735,-0.293 0.213,-0.196 0.32,-0.425 0.32,-0.689 V 1.742 h 0.799 c 0.294,0 0.541,-0.098 0.741,-0.293 0.205,-0.192 0.307,-0.425 0.307,-0.701 0,-0.267 -0.102,-0.499 -0.307,-0.694 -0.204,-0.192 -0.452,-0.287 -0.741,-0.287 h -0.799 v -3.454 c 0,-0.264 -0.107,-0.493 -0.32,-0.689 -0.209,-0.195 -0.454,-0.293 -0.735,-0.293 -0.29,0 -0.537,0.096 -0.741,0.287 -0.205,0.196 -0.307,0.427 -0.307,0.695 v 3.454 h -0.249 c -0.282,0 -0.527,0.097 -0.735,0.293 -0.209,0.195 -0.313,0.425 -0.313,0.688 0,0.276 0.104,0.509 0.313,0.701 0.208,0.195 0.453,0.293 0.735,0.293 h 0.249 v 1.436 c 0,0.268 0.102,0.497 0.307,0.689 0.204,0.195 0.451,0.293 0.741,0.293 z m -6.555,-2.418 c 0.554,0 1.042,-0.138 1.463,-0.413 0.426,-0.272 0.75,-0.639 0.972,-1.102 0.226,-0.458 0.339,-0.975 0.339,-1.55 v -2.364 c 0,-0.264 -0.105,-0.493 -0.314,-0.689 -0.204,-0.195 -0.449,-0.293 -0.735,-0.293 -0.281,0 -0.528,0.098 -0.741,0.293 -0.213,0.196 -0.32,0.425 -0.32,0.689 v 2.388 c 0,0.299 -0.102,0.555 -0.306,0.766 -0.205,0.216 -0.448,0.323 -0.729,0.323 -0.281,0 -0.524,-0.107 -0.729,-0.323 -0.2,-0.211 -0.3,-0.467 -0.3,-0.766 v -2.388 c 0,-0.264 -0.105,-0.493 -0.313,-0.689 -0.209,-0.195 -0.458,-0.293 -0.748,-0.293 -0.281,0 -0.526,0.098 -0.735,0.293 -0.209,0.196 -0.313,0.425 -0.313,0.689 v 4.435 c 0,0.276 0.104,0.509 0.313,0.701 0.209,0.195 0.454,0.293 0.735,0.293 0.192,0 0.368,-0.046 0.53,-0.138 0.162,-0.092 0.29,-0.213 0.384,-0.365 0.469,0.335 0.984,0.503 1.547,0.503 z m -5.731,-3.208 v -2.209 c 0,-0.28 -0.105,-0.515 -0.314,-0.707 -0.208,-0.191 -0.479,-0.287 -0.811,-0.287 -0.401,0 -0.729,0.14 -0.985,0.419 -0.417,-0.279 -0.922,-0.419 -1.514,-0.419 -0.593,0 -1.138,0.146 -1.637,0.437 -0.494,0.291 -0.882,0.682 -1.163,1.173 -0.281,0.491 -0.422,1.022 -0.422,1.593 0,0.578 0.151,1.113 0.454,1.604 0.307,0.495 0.722,0.886 1.246,1.173 0.529,0.287 1.102,0.431 1.72,0.431 0.618,0 1.189,-0.142 1.713,-0.425 0.524,-0.283 0.939,-0.672 1.246,-1.167 0.311,-0.491 0.467,-1.03 0.467,-1.616 z m -3.426,1.233 c -0.362,0 -0.671,-0.12 -0.927,-0.36 -0.256,-0.239 -0.384,-0.53 -0.384,-0.873 0,-0.34 0.128,-0.629 0.384,-0.868 0.256,-0.24 0.565,-0.36 0.927,-0.36 0.366,0 0.677,0.12 0.933,0.36 0.256,0.239 0.383,0.528 0.383,0.868 0,0.343 -0.127,0.634 -0.383,0.873 -0.256,0.24 -0.567,0.36 -0.933,0.36 m -8.806,0 c -0.366,0 -0.679,-0.12 -0.939,-0.36 -0.256,-0.239 -0.384,-0.53 -0.384,-0.873 0,-0.34 0.128,-0.629 0.384,-0.868 0.26,-0.24 0.573,-0.36 0.939,-0.36 0.363,0 0.669,0.12 0.921,0.36 0.255,0.239 0.383,0.528 0.383,0.868 0,0.343 -0.128,0.634 -0.383,0.873 -0.252,0.24 -0.558,0.36 -0.921,0.36 m 2.352,4.758 c 0.286,0 0.531,-0.098 0.736,-0.293 0.208,-0.196 0.313,-0.425 0.313,-0.688 v -5.088 c 0,-0.587 -0.158,-1.122 -0.473,-1.604 -0.311,-0.479 -0.727,-0.852 -1.247,-1.12 -0.515,-0.267 -1.076,-0.401 -1.681,-0.401 -0.464,0 -0.907,0.084 -1.329,0.252 -0.422,0.171 -0.788,0.399 -1.099,0.682 -0.307,0.287 -0.552,0.628 -0.735,1.023 -0.179,0.396 -0.269,0.811 -0.269,1.246 0,0.578 0.143,1.113 0.428,1.604 0.286,0.495 0.671,0.886 1.157,1.173 0.49,0.287 1.019,0.431 1.585,0.431 0.639,0 1.157,-0.14 1.553,-0.419 v 2.221 c 0,0.263 0.105,0.492 0.314,0.688 0.208,0.196 0.458,0.293 0.747,0.293 m -8.83,-2.783 c 0.298,0 0.549,-0.098 0.754,-0.293 0.204,-0.192 0.307,-0.425 0.307,-0.701 v -2.34 c 0,-0.563 -0.13,-1.078 -0.39,-1.545 -0.26,-0.466 -0.631,-0.84 -1.113,-1.119 -0.481,-0.275 -1.024,-0.413 -1.629,-0.413 -0.605,0 -1.149,0.138 -1.63,0.413 -0.482,0.279 -0.855,0.653 -1.119,1.119 -0.26,0.467 -0.39,0.982 -0.39,1.545 v 2.34 c 0,0.276 0.103,0.509 0.307,0.701 0.205,0.195 0.452,0.293 0.742,0.293 0.294,0 0.543,-0.098 0.747,-0.293 0.205,-0.192 0.307,-0.425 0.307,-0.701 v -2.376 c 0,-0.299 0.102,-0.559 0.307,-0.778 0.205,-0.216 0.447,-0.324 0.729,-0.324 0.281,0 0.522,0.108 0.722,0.324 0.2,0.219 0.3,0.479 0.3,0.778 v 2.376 c 0,0.276 0.103,0.509 0.307,0.701 0.209,0.195 0.456,0.293 0.742,0.293 m -9.816,2.418 c 0.282,0 0.526,-0.098 0.735,-0.293 0.213,-0.196 0.32,-0.425 0.32,-0.689 V 1.742 h 0.799 c 0.294,0 0.541,-0.098 0.741,-0.293 0.205,-0.192 0.307,-0.425 0.307,-0.701 0,-0.267 -0.102,-0.499 -0.307,-0.694 -0.204,-0.192 -0.451,-0.287 -0.741,-0.287 h -0.799 v -3.454 c 0,-0.264 -0.107,-0.493 -0.32,-0.689 -0.209,-0.195 -0.453,-0.293 -0.735,-0.293 -0.289,0 -0.537,0.096 -0.741,0.287 -0.205,0.196 -0.307,0.427 -0.307,0.695 v 3.454 h -0.249 c -0.281,0 -0.526,0.097 -0.735,0.293 -0.209,0.195 -0.313,0.425 -0.313,0.688 0,0.276 0.104,0.509 0.313,0.701 0.209,0.195 0.454,0.293 0.735,0.293 h 0.249 v 1.436 c 0,0.268 0.102,0.497 0.307,0.689 0.204,0.195 0.452,0.293 0.741,0.293 z m -6.849,-2.418 c 0.302,0 0.607,-0.028 0.914,-0.084 0.311,-0.052 0.605,-0.13 0.882,-0.233 0.277,-0.1 0.503,-0.24 0.677,-0.419 0.175,-0.176 0.262,-0.375 0.262,-0.599 0,-0.251 -0.091,-0.473 -0.275,-0.664 -0.178,-0.188 -0.392,-0.282 -0.639,-0.282 -0.2,0 -0.392,0.046 -0.575,0.138 -0.183,0.096 -0.375,0.19 -0.575,0.281 -0.2,0.096 -0.42,0.144 -0.658,0.144 -0.175,0 -0.305,-0.03 -0.39,-0.09 -0.081,-0.056 -0.122,-0.124 -0.122,-0.203 0,-0.076 0.064,-0.14 0.192,-0.192 0.128,-0.048 0.294,-0.09 0.498,-0.126 0.205,-0.031 0.431,-0.071 0.678,-0.119 0.251,-0.044 0.501,-0.112 0.748,-0.204 0.247,-0.088 0.473,-0.197 0.677,-0.329 0.205,-0.132 0.371,-0.315 0.499,-0.551 0.128,-0.235 0.192,-0.509 0.192,-0.82 0,-0.439 -0.128,-0.818 -0.384,-1.137 -0.256,-0.315 -0.588,-0.549 -0.997,-0.7 -0.409,-0.148 -0.869,-0.222 -1.381,-0.222 -0.805,0 -1.506,0.154 -2.102,0.461 -0.597,0.311 -0.895,0.684 -0.895,1.119 0,0.252 0.096,0.463 0.287,0.635 0.192,0.175 0.405,0.263 0.64,0.263 0.17,0 0.343,-0.038 0.517,-0.114 0.179,-0.071 0.335,-0.151 0.467,-0.239 0.136,-0.084 0.313,-0.164 0.53,-0.239 0.218,-0.072 0.45,-0.108 0.697,-0.108 0.141,0 0.266,0.024 0.377,0.072 0.115,0.052 0.173,0.133 0.173,0.245 0,0.092 -0.064,0.166 -0.192,0.222 -0.128,0.055 -0.296,0.101 -0.505,0.137 -0.204,0.036 -0.43,0.074 -0.677,0.114 -0.248,0.044 -0.495,0.108 -0.742,0.192 -0.247,0.087 -0.475,0.195 -0.684,0.323 -0.204,0.131 -0.371,0.315 -0.498,0.55 -0.128,0.24 -0.192,0.521 -0.192,0.844 0,0.615 0.239,1.09 0.716,1.425 0.477,0.339 1.097,0.509 1.86,0.509 m -9.694,2.418 h 4.161 c 0.294,0 0.55,-0.104 0.767,-0.311 0.221,-0.204 0.332,-0.443 0.332,-0.718 0,-0.292 -0.108,-0.539 -0.326,-0.743 -0.217,-0.203 -0.475,-0.305 -0.773,-0.305 h -3.049 V 0.946 h 2.173 c 0.307,0 0.567,-0.102 0.78,-0.305 0.213,-0.2 0.32,-0.445 0.32,-0.737 0,-0.283 -0.107,-0.525 -0.32,-0.724 -0.213,-0.196 -0.473,-0.293 -0.78,-0.293 h -2.173 v -1.485 h 3.049 c 0.298,0 0.556,-0.104 0.773,-0.311 0.218,-0.204 0.326,-0.451 0.326,-0.742 0,-0.276 -0.111,-0.515 -0.332,-0.719 -0.217,-0.199 -0.473,-0.299 -0.767,-0.299 h -4.161 c -0.298,0 -0.556,0.102 -0.773,0.305 -0.218,0.208 -0.326,0.449 -0.326,0.725 v 6.77 c 0,0.275 0.108,0.514 0.326,0.718 0.217,0.207 0.475,0.311 0.773,0.311 m -12.376,-4.393 c -0.362,0 -0.671,-0.12 -0.927,-0.36 -0.256,-0.239 -0.383,-0.53 -0.383,-0.873 0,-0.34 0.127,-0.629 0.383,-0.868 0.256,-0.24 0.565,-0.36 0.927,-0.36 0.366,0 0.677,0.12 0.933,0.36 0.256,0.239 0.384,0.528 0.384,0.868 0,0.343 -0.128,0.634 -0.384,0.873 -0.256,0.24 -0.567,0.36 -0.933,0.36 m -1.719,1.544 c 0.528,0.287 1.101,0.431 1.719,0.431 0.618,0 1.189,-0.144 1.713,-0.431 0.528,-0.287 0.946,-0.678 1.253,-1.173 0.306,-0.491 0.46,-1.026 0.46,-1.604 0,-0.579 -0.154,-1.116 -0.46,-1.611 -0.307,-0.491 -0.725,-0.88 -1.253,-1.167 -0.524,-0.283 -1.095,-0.425 -1.713,-0.425 -0.465,0 -0.908,0.084 -1.33,0.252 -0.421,0.171 -0.786,0.399 -1.093,0.682 -0.302,0.287 -0.545,0.628 -0.728,1.023 -0.179,0.396 -0.269,0.811 -0.269,1.246 0,0.578 0.152,1.113 0.454,1.604 0.307,0.495 0.722,0.886 1.247,1.173 z m -7.087,-1.544 c -0.366,0 -0.679,-0.12 -0.939,-0.36 -0.256,-0.239 -0.384,-0.53 -0.384,-0.873 0,-0.34 0.128,-0.629 0.384,-0.868 0.26,-0.24 0.573,-0.36 0.939,-0.36 0.363,0 0.669,0.12 0.921,0.36 0.256,0.239 0.383,0.528 0.383,0.868 0,0.343 -0.127,0.634 -0.383,0.873 -0.252,0.24 -0.558,0.36 -0.921,0.36 m 2.353,4.758 c 0.285,0 0.53,-0.098 0.735,-0.293 0.208,-0.196 0.313,-0.425 0.313,-0.688 v -5.088 c 0,-0.587 -0.158,-1.122 -0.473,-1.604 -0.311,-0.479 -0.727,-0.852 -1.247,-1.12 -0.515,-0.267 -1.075,-0.401 -1.681,-0.401 -0.464,0 -0.907,0.084 -1.329,0.252 -0.422,0.171 -0.788,0.399 -1.099,0.682 -0.307,0.287 -0.552,0.628 -0.735,1.023 -0.179,0.396 -0.269,0.811 -0.269,1.246 0,0.578 0.143,1.113 0.428,1.604 0.286,0.495 0.671,0.886 1.157,1.173 0.49,0.287 1.019,0.431 1.585,0.431 0.64,0 1.157,-0.14 1.554,-0.419 v 2.221 c 0,0.263 0.104,0.492 0.313,0.688 0.209,0.196 0.458,0.293 0.748,0.293 z"
         style="fill:#ffffff;fill-opacity:1;fill-rule:nonzero;stroke:none"
         transform="matrix(1.3333333,0,0,-1.3333333,394.51613,156.22)"
         clip-path="url(#clipPath39)" />
    </g>
  </g>
</svg>
