<?xml version="1.0" encoding="UTF-8" standalone="no"?>
<!-- Created with Inkscape (http://www.inkscape.org/) -->

<svg
   version="1.1"
   id="svg1"
   width="168.10799"
   height="75.206673"
   viewBox="0 0 168.10798 75.206672"
   sodipodi:docname="carteira.svg"
   inkscape:version="1.3 (0e150ed, 2023-07-21)"
   inkscape:export-filename="carteira.png"
   inkscape:export-xdpi="96"
   inkscape:export-ydpi="96"
   xmlns:inkscape="http://www.inkscape.org/namespaces/inkscape"
   xmlns:sodipodi="http://sodipodi.sourceforge.net/DTD/sodipodi-0.dtd"
   xmlns="http://www.w3.org/2000/svg"
   xmlns:svg="http://www.w3.org/2000/svg">
  <defs
     id="defs1">
    <clipPath
       clipPathUnits="userSpaceOnUse"
       id="clipPath44">
      <path
         d="M 0,595 H 842 V 0 H 0 Z"
         transform="translate(-183.90441,-505.40901)"
         id="path44" />
    </clipPath>
  </defs>
  <sodipodi:namedview
     id="namedview1"
     pagecolor="#ffffff"
     bordercolor="#000000"
     borderopacity="0.25"
     inkscape:showpageshadow="2"
     inkscape:pageopacity="0.0"
     inkscape:pagecheckerboard="0"
     inkscape:deskcolor="#d1d1d1"
     inkscape:zoom="0.92013054"
     inkscape:cx="561.3334"
     inkscape:cy="396.68285"
     inkscape:window-width="1632"
     inkscape:window-height="957"
     inkscape:window-x="0"
     inkscape:window-y="25"
     inkscape:window-maximized="0"
     inkscape:current-layer="layer-MC0"
     inkscape:export-bgcolor="#ffffff00">
    <inkscape:page
       x="4.6144328e-06"
       y="4.4701366e-07"
       width="168.10799"
       height="75.206673"
       id="page2"
       margin="0"
       bleed="0" />
  </sodipodi:namedview>
  <g
     id="layer-MC0"
     inkscape:groupmode="layer"
     inkscape:label="Camada 1"
     transform="translate(-100.50184,-87.281334)">
    <path
       id="path43"
       d="m 0,0 c -3.442,0 -6.374,-1.236 -8.795,-3.709 -2.422,-2.448 -3.633,-5.392 -3.633,-8.834 0,-0.535 0.051,-1.313 0.153,-2.333 L 8.451,-3.289 C 6.106,-1.096 3.289,0 0,0 Z m 0,7.266 c 3.467,0 6.73,-0.88 9.79,-2.639 3.059,-1.733 5.494,-4.117 7.304,-7.151 0.306,-0.535 0.459,-1.134 0.459,-1.797 0,-1.402 -0.625,-2.448 -1.874,-3.136 L -8.834,-21.3 c 2.473,-2.473 5.418,-3.71 8.834,-3.71 2.218,0 4.283,0.549 6.195,1.645 1.938,1.096 3.48,2.587 4.627,4.474 0.689,1.198 1.734,1.797 3.136,1.797 0.969,0 1.81,-0.357 2.524,-1.07 0.714,-0.714 1.071,-1.581 1.071,-2.601 0,-0.663 -0.153,-1.262 -0.459,-1.797 -1.81,-2.983 -4.245,-5.354 -7.304,-7.113 -3.06,-1.734 -6.323,-2.6 -9.79,-2.6 -3.569,0 -6.871,0.879 -9.904,2.638 -3.034,1.759 -5.431,4.156 -7.19,7.19 -1.759,3.033 -2.638,6.335 -2.638,9.904 0,3.569 0.879,6.871 2.638,9.904 1.759,3.06 4.156,5.469 7.19,7.228 3.033,1.785 6.335,2.677 9.904,2.677 z m -43.518,0 c 3.39,0 6.513,-0.842 9.369,-2.524 2.881,-1.683 5.15,-3.964 6.807,-6.845 1.682,-2.881 2.524,-6.017 2.524,-9.408 v -17.17 c 0,-0.994 -0.357,-1.848 -1.071,-2.562 -0.688,-0.688 -1.53,-1.032 -2.524,-1.032 -0.969,0 -1.81,0.356 -2.524,1.07 -0.714,0.714 -1.071,1.555 -1.071,2.524 v 17.17 c 0,3.187 -1.134,5.902 -3.403,8.146 -2.244,2.243 -4.946,3.365 -8.107,3.365 -3.162,0 -5.877,-1.122 -8.146,-3.365 -2.243,-2.244 -3.365,-4.959 -3.365,-8.146 v -17.17 c 0,-0.969 -0.369,-1.81 -1.109,-2.524 -0.714,-0.714 -1.58,-1.07 -2.6,-1.07 -0.969,0 -1.81,0.356 -2.524,1.07 -0.714,0.714 -1.071,1.555 -1.071,2.524 V 3.595 c 0,1.019 0.357,1.886 1.071,2.6 0.714,0.714 1.555,1.071 2.524,1.071 1.02,0 1.886,-0.357 2.6,-1.071 0.74,-0.714 1.109,-1.581 1.109,-2.6 V 3.289 c 3.289,2.651 7.126,3.977 11.511,3.977 M -79.962,-3.709 C -82.409,-1.236 -85.354,0 -88.796,0 c -3.441,0 -6.373,-1.236 -8.795,-3.709 -2.422,-2.448 -3.633,-5.392 -3.633,-8.834 0,-3.442 1.211,-6.386 3.633,-8.834 2.422,-2.422 5.354,-3.633 8.795,-3.633 3.442,0 6.387,1.211 8.834,3.633 2.473,2.448 3.709,5.392 3.709,8.834 0,3.442 -1.236,6.386 -3.709,8.834 m 7.304,27.839 c 0.994,0 1.848,-0.37 2.562,-1.109 0.74,-0.714 1.109,-1.555 1.109,-2.524 v -33.04 c 0,-3.569 -0.892,-6.871 -2.677,-9.904 -1.759,-3.034 -4.168,-5.431 -7.227,-7.19 -3.034,-1.759 -6.335,-2.638 -9.905,-2.638 -3.569,0 -6.87,0.879 -9.904,2.638 -3.034,1.759 -5.43,4.156 -7.189,7.19 -1.759,3.033 -2.639,6.335 -2.639,9.904 0,3.569 0.88,6.871 2.639,9.904 1.759,3.06 4.155,5.469 7.189,7.228 3.034,1.785 6.335,2.677 9.904,2.677 4.742,0 8.923,-1.517 12.543,-4.551 v 17.782 c 0,0.969 0.357,1.81 1.071,2.524 0.714,0.739 1.555,1.109 2.524,1.109 z"
       style="fill:#ffffff;fill-opacity:1;fill-rule:nonzero;stroke:none"
       transform="matrix(1.3333333,0,0,-1.3333333,245.20587,119.45467)"
       clip-path="url(#clipPath44)" />
  </g>
</svg>
